<?xml version="1.0" standalone="no"?>
<!DOCTYPE svg PUBLIC "-//W3C//DTD SVG 20010904//EN"
 "http://www.w3.org/TR/2001/REC-SVG-20010904/DTD/svg10.dtd">
<svg version="1.0" xmlns="http://www.w3.org/2000/svg"
 width="700.000000pt" height="700.000000pt" viewBox="0 0 700.000000 700.000000"
 preserveAspectRatio="xMidYMid meet">
<metadata>
Created by potrace 1.11, written by Peter Selinger 2001-2013
</metadata>
<g transform="translate(0.000000,700.000000) scale(0.100000,-0.100000)"
fill="#000000" stroke="none">
<path d="M410 4116 l0 -2132 -205 0 -205 1 0 -616 0 -617 3500 0 3500 0 -2
616 -3 617 -202 -1 -203 0 0 2132 0 2132 -3090 0 -3090 0 0 -2132z m5768 -205
l-3 -1926 -2677 0 -2678 -1 0 1927 0 1926 2680 0 2680 0 -2 -1926z m405 -2340
c4 -1 7 -92 7 -204 l0 -204 -3090 0 -3090 0 0 203 c0 203 0 203 23 206 19 3
6128 2 6150 -1z"/>
<path d="M3535 5136 c-3 -10 -71 -350 -81 -406 -3 -14 -7 -32 -9 -40 -3 -8 -7
-33 -10 -55 -4 -22 -8 -48 -11 -57 -3 -10 -7 -30 -10 -45 -3 -16 -34 -174 -70
-353 -35 -179 -67 -337 -69 -353 -3 -15 -12 -59 -20 -97 -8 -38 -17 -83 -20
-100 -3 -17 -12 -62 -20 -100 -8 -38 -17 -84 -20 -102 -4 -18 -24 -121 -45
-228 -22 -107 -41 -207 -44 -223 -3 -15 -7 -35 -10 -45 -3 -9 -7 -34 -10 -54
-3 -21 -10 -57 -15 -80 -6 -23 -9 -43 -8 -44 2 -1 368 -74 391 -78 4 0 10 6
11 14 15 73 85 421 88 440 3 14 13 61 22 105 9 44 19 91 21 105 3 14 21 106
40 205 20 99 38 188 39 197 2 9 22 111 45 225 23 114 44 219 47 233 2 14 22
111 43 215 21 105 41 204 43 220 3 17 24 120 46 230 22 110 39 201 37 202 -1
1 -20 5 -42 9 -21 3 -42 8 -45 10 -3 2 -21 6 -40 9 -19 3 -54 10 -79 15 -25 5
-56 12 -70 14 -14 3 -47 9 -73 14 -35 7 -50 6 -52 -2z"/>
<path d="M1980 4425 l-514 -514 515 -516 516 -515 145 144 146 145 -371 371
-371 370 371 373 371 372 -137 136 c-76 74 -142 138 -147 142 -6 3 -242 -226
-524 -508z"/>
<path d="M4357 4799 l-145 -144 371 -372 371 -373 -371 -370 -371 -370 146
-146 145 -145 516 516 515 515 -516 516 -515 516 -146 -143z"/>
</g>
</svg>
