<?xml version="1.0" standalone="no"?>
<!DOCTYPE svg PUBLIC "-//W3C//DTD SVG 20010904//EN"
 "http://www.w3.org/TR/2001/REC-SVG-20010904/DTD/svg10.dtd">
<svg version="1.0" xmlns="http://www.w3.org/2000/svg"
 width="700.000000pt" height="700.000000pt" viewBox="0 0 700.000000 700.000000"
 preserveAspectRatio="xMidYMid meet">
<metadata>
Created by potrace 1.11, written by Peter Selinger 2001-2013
</metadata>
<g transform="translate(0.000000,700.000000) scale(0.100000,-0.100000)"
fill="#000000" stroke="none">
<path d="M665 6580 c-270 -39 -516 -235 -611 -487 -28 -74 -30 -82 -44 -163
-13 -74 -12 -4795 1 -4873 49 -296 276 -540 580 -624 61 -17 214 -18 2909 -18
3206 0 2887 -8 3065 79 198 98 330 254 406 481 l24 70 2 2420 c3 2614 5 2490
-49 2625 -27 69 -91 174 -142 234 -87 102 -243 199 -385 239 l-76 21 -2815 2
c-1548 0 -2837 -2 -2865 -6z m5708 -243 c144 -48 275 -157 335 -278 57 -116
61 -156 62 -646 l0 -443 -47 0 c-68 0 -6277 0 -6396 0 l-97 0 1 448 c1 493 4
526 61 641 43 86 144 189 230 232 137 70 -107 65 3001 63 2542 -1 2806 -3
2850 -17z m397 -3412 l-1 -1812 -22 -74 c-32 -101 -69 -162 -147 -239 -72 -72
-161 -121 -256 -143 -86 -20 -5636 -18 -5704 2 -95 28 -174 75 -245 146 -82
82 -118 144 -145 250 -19 76 -20 120 -20 1880 l0 1802 3270 0 3270 0 0 -1812z"/>
<path d="M761 6013 c-239 -61 -350 -341 -217 -547 99 -152 271 -209 442 -145
82 31 172 121 204 204 30 81 31 188 0 267 -63 167 -254 265 -429 221z m173
-250 c76 -55 60 -183 -28 -223 -65 -30 -142 -6 -169 52 -29 63 -26 107 13 152
49 56 124 64 184 19z"/>
<path d="M1857 6000 c-77 -27 -126 -64 -175 -130 -138 -185 -67 -448 146 -548
49 -23 70 -27 147 -27 76 0 99 5 145 26 81 39 144 99 182 177 30 60 33 75 33
157 0 82 -3 97 -32 156 -62 125 -175 200 -313 206 -57 3 -89 -1 -133 -17z
m177 -226 c90 -43 97 -174 12 -229 -127 -83 -275 93 -168 200 47 48 97 57 156
29z"/>
<path d="M3030 6012 c-52 -8 -149 -61 -190 -103 -208 -214 -90 -573 204 -617
241 -36 450 174 413 417 -20 138 -138 268 -267 296 -42 9 -125 13 -160 7z
m130 -243 c58 -24 87 -116 56 -178 -45 -86 -171 -95 -225 -15 -29 42 -33 90
-10 135 35 69 100 91 179 58z"/>
<path d="M3655 4051 c-33 -14 -56 -47 -70 -103 -11 -40 -106 -488 -131 -613
-2 -11 -8 -40 -13 -65 -16 -70 -90 -422 -95 -450 -5 -25 -68 -325 -166 -785
-65 -304 -67 -321 -40 -363 23 -37 54 -52 107 -52 27 0 43 8 67 33 27 29 35
49 51 133 10 54 20 104 21 109 2 6 15 66 29 135 15 69 29 134 31 145 2 11 7
34 10 50 2 17 9 46 14 65 7 29 29 131 54 256 2 10 14 64 26 119 11 55 34 163
50 240 15 77 33 160 39 185 6 25 22 99 35 165 14 66 41 194 60 285 19 91 38
181 41 200 3 19 12 60 20 90 23 92 24 130 7 166 -24 51 -93 77 -147 55z"/>
<path d="M2715 3589 c-18 -11 -253 -205 -265 -219 -3 -3 -50 -44 -105 -90 -55
-46 -105 -89 -111 -94 -6 -6 -33 -29 -60 -51 -200 -165 -263 -226 -270 -260
-13 -74 -8 -80 181 -240 66 -55 142 -120 169 -144 66 -57 77 -66 231 -196 72
-60 139 -118 150 -128 55 -51 86 -69 124 -70 49 -1 88 24 107 69 23 55 5 104
-59 158 -324 277 -442 377 -483 411 -27 22 -67 57 -89 78 -38 35 -39 38 -21
52 10 7 32 27 50 42 17 16 92 80 166 142 74 62 153 130 175 150 22 20 53 47
69 59 45 35 148 124 173 151 24 25 26 32 26 90 -1 65 -101 123 -158 90z"/>
<path d="M4195 3590 c-39 -16 -67 -57 -69 -98 -1 -54 17 -82 88 -140 33 -28
72 -60 86 -72 14 -12 45 -38 69 -58 24 -21 49 -42 55 -47 6 -6 74 -64 151
-129 186 -158 225 -192 225 -199 0 -3 -75 -70 -167 -148 -93 -79 -241 -206
-330 -282 -139 -118 -164 -144 -173 -177 -21 -76 33 -145 111 -143 38 1 69 19
124 70 11 10 63 54 115 98 52 44 109 92 125 106 17 15 68 59 115 99 47 39 108
91 135 115 28 23 86 73 130 110 90 76 115 108 115 147 0 50 -19 75 -127 167
-59 51 -119 103 -133 114 -317 272 -521 443 -545 458 -32 20 -67 23 -100 9z"/>
</g>
</svg>
